<svg xmlns="http://www.w3.org/2000/svg" viewBox="0 0 88.49 107.48"><defs><style>.cls-1{fill:#52433c;}.cls-2,.cls-3{fill:none;stroke:#52433c;stroke-linecap:round;stroke-linejoin:round;}.cls-2{stroke-width:2px;}</style></defs><g id="Layer_2" data-name="Layer 2"><g id="OBJECTS"><path class="cls-1" d="M43.63,2A18.74,18.74,0,0,1,62,16.87a18.63,18.63,0,1,1,5.89,36.31V70.31a5.24,5.24,0,0,1-5.23,5.24h-38a5.24,5.24,0,0,1-5.23-5.24V53.17a19,19,0,0,1,6.18-37.42A18.72,18.72,0,0,1,43.63,2m0-2A20.77,20.77,0,0,0,24.18,13.6l-1.11,0a21,21,0,0,0-5.66,41.18V70.31a7.24,7.24,0,0,0,7.23,7.24h38a7.25,7.25,0,0,0,7.23-7.24V55.09a20.64,20.64,0,1,0-6.48-40.68A20.83,20.83,0,0,0,43.63,0Z"/><path class="cls-2" d="M39.9,6.48A14.9,14.9,0,0,1,43.63,6a15.25,15.25,0,0,1,1.66.09"/><path class="cls-2" d="M30.08,15a14.76,14.76,0,0,1,5.63-6.65"/><path class="cls-2" d="M19.79,19.93a14.76,14.76,0,0,1,3.27-.36,15.61,15.61,0,0,1,2,.15"/><path class="cls-2" d="M16.77,21a14.35,14.35,0,0,1,3-1"/><path class="cls-2" d="M9.25,28.75A15,15,0,0,1,16.77,21"/><line class="cls-2" x1="28.14" y1="54.08" x2="28.14" y2="65.27"/><line class="cls-2" x1="43.85" y1="51.28" x2="43.85" y2="66.2"/><line class="cls-2" x1="59.57" y1="54.08" x2="59.57" y2="65.27"/><line class="cls-2" x1="28.14" y1="47.3" x2="28.14" y2="48.49"/><line class="cls-2" x1="43.85" y1="44.75" x2="43.85" y2="46.67"/><line class="cls-2" x1="59.57" y1="47.3" x2="59.57" y2="48.49"/><path class="cls-1" d="M48.45,89.77c3.69,0,7.27,3.82,9.57,6.33a7.07,7.07,0,0,0,5.18,2.5,5.17,5.17,0,0,0,5.25-6s2,6.44-1.56,10a10.53,10.53,0,0,1-7.56,3c-4.52,0-9.29-2.29-12.65-5a10.23,10.23,0,0,1-3-3.44,10.23,10.23,0,0,1-3.05,3.44c-3.36,2.68-8.14,5-12.65,5a10.52,10.52,0,0,1-7.56-3c-3.6-3.51-1.56-10-1.56-10a5.17,5.17,0,0,0,5.25,6,7,7,0,0,0,5.17-2.5c2.31-2.51,5.88-6.33,9.58-6.33a5.29,5.29,0,0,1,4.82,3.13,5.28,5.28,0,0,1,4.82-3.13m0-2a7.29,7.29,0,0,0-4.82,1.83,7.31,7.31,0,0,0-4.82-1.83c-4.65,0-8.66,4.37-11,7a5.16,5.16,0,0,1-3.7,1.85,3.37,3.37,0,0,1-2.57-1.12,3.14,3.14,0,0,1-.7-2.62,2,2,0,0,0-1.54-2.24,2.28,2.28,0,0,0-.44-.05A2,2,0,0,0,16.9,92c-.1.31-2.36,7.66,2.07,12a12.55,12.55,0,0,0,9,3.53c4.46,0,9.65-2,13.89-5.4a19,19,0,0,0,1.81-1.61,20.24,20.24,0,0,0,1.8,1.61c4.25,3.38,9.44,5.4,13.9,5.4a12.53,12.53,0,0,0,9-3.53c4.44-4.32,2.17-11.67,2.07-12a2,2,0,0,0-1.9-1.4,2.3,2.3,0,0,0-.45.05,2,2,0,0,0-1.53,2.24,3.21,3.21,0,0,1-.7,2.62A3.38,3.38,0,0,1,63.2,96.6a5.14,5.14,0,0,1-3.7-1.85c-2.39-2.61-6.4-7-11-7Z"/><path class="cls-3" d="M46.84,92c3.26-.48,5.84,1.33,7.3,4.69"/><path class="cls-3" d="M41,92c-3.26-.48-5.83,1.33-7.29,4.69"/><path class="cls-1" d="M4.34,66.2A6.38,6.38,0,0,1,8.4,72.14L8.35,103.7A1.4,1.4,0,0,1,7,105.08H7a1.39,1.39,0,0,1-.35,0A1.17,1.17,0,0,1,6,103.25c.36-.55.69-1.84-.25-4.82-.67-2.12.36-6.14.37-6.72a3.44,3.44,0,0,0-.87-2.11l-.87-1.36a1.7,1.7,0,0,0-1.55-.82h0a1.84,1.84,0,0,0-.41,0H2.33A.32.32,0,0,1,2,87.15H2s.23-12,2.34-20.94m0-2a2,2,0,0,0-1.95,1.54C.26,74.77,0,86.6,0,87.1a2.34,2.34,0,0,0,2.33,2.36,3,3,0,0,0,.42,0l.81,1.25.13.19a1.55,1.55,0,0,1,.41.78c0,.15,0,.37-.1.64-.4,2.25-.78,4.82-.17,6.74.71,2.25.5,3,.46,3.15a3.27,3.27,0,0,0-.3,2.9A3.06,3.06,0,0,0,6.1,107a3.39,3.39,0,0,0,4.25-3.27l.05-31.55a8.41,8.41,0,0,0-5.34-7.81,2,2,0,0,0-.72-.14Z"/><line class="cls-2" x1="4.38" y1="89.38" x2="8.86" y2="89.38"/><path class="cls-1" d="M82.92,66.2c2.1,8.93,2.34,20.94,2.34,20.94h0a.33.33,0,0,1-.34.31h-.06a1.9,1.9,0,0,0-.41,0h0a1.69,1.69,0,0,0-1.55.82L82,89.6a3.44,3.44,0,0,0-.87,2.11c0,.58,1,4.6.37,6.72-.94,3-.61,4.27-.25,4.82a1.17,1.17,0,0,1-.62,1.79,1.34,1.34,0,0,1-.35,0h0a1.38,1.38,0,0,1-1.39-1.38l0-31.56a6.36,6.36,0,0,1,4.06-5.94m0-2a2.06,2.06,0,0,0-.73.14,8.4,8.4,0,0,0-5.33,7.81l0,31.55a3.4,3.4,0,0,0,3.39,3.38,3.49,3.49,0,0,0,.86-.11,3,3,0,0,0,2.1-1.89,3.21,3.21,0,0,0-.3-2.9c0-.1-.24-.9.47-3.15.6-1.92.23-4.49-.17-6.74-.05-.27-.09-.49-.11-.64a1.64,1.64,0,0,1,.41-.78l.14-.19.81-1.25a2.73,2.73,0,0,0,.41,0,2.33,2.33,0,0,0,2.34-2.31c0-.55-.27-12.38-2.4-21.41a2,2,0,0,0-1-1.31,2,2,0,0,0-.93-.23Z"/><line class="cls-2" x1="82.88" y1="89.38" x2="78.4" y2="89.38"/></g></g></svg>